<svg xmlns="http://www.w3.org/2000/svg" viewBox="0 0 320 480" preserveAspectRatio="xMidYMid slice">
  <defs>
    <radialGradient id="a" cx="50%" cy="48%" r="92%">
      <stop offset="0%" stop-color="#2a1548"/>
      <stop offset="50%" stop-color="#120b24"/>
      <stop offset="100%" stop-color="#020306"/>
    </radialGradient>
    <radialGradient id="bloom" cx="50%" cy="40%" r="52%">
      <stop offset="0%" stop-color="#b39ddb" stop-opacity="0.45"/>
      <stop offset="40%" stop-color="#5e35b1" stop-opacity="0.18"/>
      <stop offset="100%" stop-color="transparent"/>
    </radialGradient>
    <linearGradient id="geo" x1="0%" y1="50%" x2="100%" y2="50%">
      <stop offset="0%" stop-color="#7e57c2" stop-opacity="0.95"/>
      <stop offset="100%" stop-color="#d1c4e9" stop-opacity="0.75"/>
    </linearGradient>
    <pattern id="spark" patternUnits="userSpaceOnUse" width="26" height="26">
      <circle cx="11" cy="9" r="0.85" fill="#e1bee7" opacity="0.55"/>
      <circle cx="20" cy="18" r="0.65" fill="#fff" opacity="0.42"/>
      <circle cx="5" cy="20" r="0.55" fill="#9575cd" opacity="0.5"/>
    </pattern>
    <radialGradient id="vign" cx="50%" cy="50%" r="71%">
      <stop offset="45%" stop-color="transparent"/>
      <stop offset="100%" stop-color="#000" stop-opacity="0.68"/>
    </radialGradient>
    <filter id="gl">
      <feGaussianBlur in="SourceGraphic" stdDeviation="3" result="blur"/>
      <feMerge><feMergeNode in="blur"/><feMergeNode in="SourceGraphic"/></feMerge>
    </filter>
  </defs>
  <rect width="320" height="480" fill="url(#a)"/>
  <rect width="320" height="480" fill="url(#spark)" opacity="0.28"/>
  <ellipse cx="160" cy="208" rx="122" ry="164" fill="url(#bloom)"/>
  <g fill="none" stroke="url(#geo)" stroke-width="1" opacity="0.5">
    <path d="M160 118 L274 394 L46 394 Z"/>
    <path d="M160 118 L274 394 L46 394 Z" transform="rotate(60 160 238.5)"/>
    <path d="M160 118 L274 394 L46 394 Z" transform="rotate(-60 160 238.5)"/>
    <circle cx="160" cy="246" r="132" opacity="0.35"/>
    <circle cx="160" cy="246" r="106" opacity="0.42"/>
    <circle cx="160" cy="246" r="80" opacity="0.35"/>
    <circle cx="160" cy="246" r="52" opacity="0.52" stroke-width="1.8" filter="url(#gl)"/>
  </g>
  <g opacity="0.18" stroke="#fff" stroke-width="0.5" fill="none">
    <path d="M40 396 L260 392 L276 452 L140 478 L72 446 Z"/>
  </g>
  <ellipse cx="160" cy="234" rx="88" ry="54" stroke="#ce93d8" stroke-opacity="0.35" stroke-width="2.5" fill="none"/>
  <rect width="320" height="480" fill="url(#vign)"/>
</svg>
