<svg xmlns="http://www.w3.org/2000/svg" viewBox="0 0 320 480" preserveAspectRatio="xMidYMid slice">
  <defs>
    <radialGradient id="a" cx="50%" cy="42%" r="92%">
      <stop offset="0%" stop-color="#0d3164"/>
      <stop offset="35%" stop-color="#3949ab"/>
      <stop offset="55%" stop-color="#b71c1c"/>
      <stop offset="100%" stop-color="#1a0520"/>
    </radialGradient>
    <radialGradient id="bloom" cx="50%" cy="34%" r="52%">
      <stop offset="0%" stop-color="#fffde7" stop-opacity="0.78"/>
      <stop offset="28%" stop-color="#ffca28" stop-opacity="0.55"/>
      <stop offset="55%" stop-color="#1976d2" stop-opacity="0.28"/>
      <stop offset="100%" stop-color="transparent"/>
    </radialGradient>
    <linearGradient id="star" x1="50%" y1="0%" x2="50%" y2="100%">
      <stop offset="0%" stop-color="#ffecb3"/>
      <stop offset="100%" stop-color="#fff3e0"/>
    </linearGradient>
    <pattern id="spark" patternUnits="userSpaceOnUse" width="20" height="20">
      <circle cx="10" cy="8" r="0.92" fill="#fff" opacity="0.92"/>
      <circle cx="4" cy="16" r="0.65" fill="#ffecb3" opacity="0.7"/>
      <circle cx="16" cy="16" r="0.55" fill="#90caf9" opacity="0.55"/>
    </pattern>
    <radialGradient id="vign" cx="50%" cy="50%" r="70%">
      <stop offset="48%" stop-color="transparent"/>
      <stop offset="100%" stop-color="#000" stop-opacity="0.55"/>
    </radialGradient>
    <filter id="gl">
      <feGaussianBlur in="SourceGraphic" stdDeviation="3.5" result="blur"/>
      <feMerge><feMergeNode in="blur"/><feMergeNode in="SourceGraphic"/></feMerge>
    </filter>
  </defs>
  <rect width="320" height="480" fill="url(#a)"/>
  <rect width="320" height="480" fill="url(#spark)" opacity="0.38"/>
  <ellipse cx="160" cy="190" rx="136" ry="172" fill="url(#bloom)"/>
  <g fill="url(#star)" stroke="#fff" stroke-opacity="0.85" opacity="0.95" stroke-width="0.6" stroke-linejoin="round" filter="url(#gl)">
    <path d="M160 132 L173 218 L266 226 L182 274 L206 378 L160 332 L114 378 L138 274 L54 226 L147 218 Z"/>
    <path opacity="0.42" transform="translate(140 296) scale(0.52)" d="M20 132 L33 218 L126 226 L42 274 L66 378 L20 332 L-26 378 L-2 274 L-86 226 L7 218 Z"/>
  </g>
  <g fill="none" opacity="0.45" stroke="#e3f2fd" stroke-width="0.8">
    <circle cx="160" cy="240" r="150"/>
    <circle cx="160" cy="240" r="124"/>
    <circle cx="160" cy="240" r="98"/>
    <circle cx="160" cy="240" r="74"/>
    <ellipse cx="160" cy="240" rx="132" ry="86" opacity="0.38"/>
    <ellipse cx="160" cy="240" rx="100" ry="62" opacity="0.42"/>
    <ellipse cx="160" cy="240" rx="70" ry="44" opacity="0.52" stroke="#ffca28"/>
  </g>
  <rect width="320" height="480" fill="url(#vign)"/>
</svg>
