<svg xmlns="http://www.w3.org/2000/svg" viewBox="0 0 320 480" preserveAspectRatio="xMidYMid slice">
  <defs>
    <radialGradient id="a" cx="50%" cy="45%" r="90%">
      <stop offset="0%" stop-color="#4a148c"/>
      <stop offset="38%" stop-color="#1b5e20" stop-opacity="0.85"/>
      <stop offset="48%" stop-color="#0d47a1"/>
      <stop offset="100%" stop-color="#060818"/>
    </radialGradient>
    <radialGradient id="bloom" cx="50%" cy="38%" r="52%">
      <stop offset="0%" stop-color="#ffd54f" stop-opacity="0.55"/>
      <stop offset="30%" stop-color="#e53935" stop-opacity="0.35"/>
      <stop offset="60%" stop-color="#7e57c2" stop-opacity="0.2"/>
      <stop offset="100%" stop-color="transparent"/>
    </radialGradient>
    <linearGradient id="ring" x1="100%" y1="0%" x2="0%" y2="100%">
      <stop offset="0%" stop-color="#ffeb3b" stop-opacity="0.95"/>
      <stop offset="50%" stop-color="#ff5252"/>
      <stop offset="100%" stop-color="#29b6f6"/>
    </linearGradient>
    <pattern id="spark" patternUnits="userSpaceOnUse" width="20" height="20">
      <circle cx="8" cy="6" r="0.95" fill="#fff" opacity="0.82"/>
      <circle cx="16" cy="14" r="0.65" fill="#ff80ab" opacity="0.55"/>
      <circle cx="3" cy="15" r="0.55" fill="#80deea" opacity="0.6"/>
    </pattern>
    <radialGradient id="vign" cx="50%" cy="50%" r="71%">
      <stop offset="48%" stop-color="transparent"/>
      <stop offset="100%" stop-color="#000" stop-opacity="0.58"/>
    </radialGradient>
    <filter id="g">
      <feGaussianBlur in="SourceGraphic" stdDeviation="3.2" result="blur"/>
      <feMerge><feMergeNode in="blur"/><feMergeNode in="SourceGraphic"/></feMerge>
    </filter>
  </defs>
  <rect width="320" height="480" fill="url(#a)"/>
  <rect width="320" height="480" fill="url(#spark)" opacity="0.4"/>
  <ellipse cx="160" cy="200" rx="128" ry="166" fill="url(#bloom)"/>
  <g fill="none" stroke="url(#ring)" stroke-width="1.1" opacity="0.7">
    <circle cx="160" cy="240" r="152" stroke-opacity="0.35"/>
    <circle cx="160" cy="240" r="128"/>
    <circle cx="160" cy="240" r="104"/>
    <circle cx="160" cy="240" r="80"/>
    <circle cx="160" cy="240" r="56" stroke-width="2"/>
    <circle cx="160" cy="240" r="34" stroke-width="2.5" filter="url(#g)" opacity="0.85"/>
    <path d="M160 138 L274 394 L46 394 Z" opacity="0.25"/>
    <path d="M160 138 L274 394 L46 394 Z" opacity="0.25" transform="rotate(72 160 242)"/>
    <path d="M160 138 L274 394 L46 394 Z" opacity="0.22" transform="rotate(-72 160 242)"/>
  </g>
  <g stroke="#ffc107" fill="none" opacity="0.28" stroke-width="0.6">
    <path d="M20 382 Q160 220 310 394"/>
    <path d="M20 396 Q160 268 310 406"/>
    <path d="M310 382 Q170 232 50 394"/>
  </g>
  <rect width="320" height="480" fill="url(#vign)"/>
</svg>
