<svg xmlns="http://www.w3.org/2000/svg" viewBox="0 0 320 480" preserveAspectRatio="xMidYMid slice">
  <defs>
    <radialGradient id="a" cx="50%" cy="42%" r="88%">
      <stop offset="0%" stop-color="#5c77b8"/>
      <stop offset="40%" stop-color="#2e4680"/>
      <stop offset="100%" stop-color="#0d1535"/>
    </radialGradient>
    <radialGradient id="bloom" cx="50%" cy="35%" r="48%">
      <stop offset="0%" stop-color="#e3f2fd" stop-opacity="0.82"/>
      <stop offset="35%" stop-color="#90caf9" stop-opacity="0.4"/>
      <stop offset="100%" stop-color="transparent"/>
    </radialGradient>
    <linearGradient id="bolt" x1="50%" y1="0%" x2="50%" y2="100%">
      <stop offset="0%" stop-color="#fff"/>
      <stop offset="100%" stop-color="#64b5f6" stop-opacity="0"/>
    </linearGradient>
    <pattern id="spark" patternUnits="userSpaceOnUse" width="22" height="22">
      <circle cx="10" cy="8" r="0.95" fill="#fff" opacity="0.82"/>
      <circle cx="3" cy="16" r="0.55" fill="#bbdefb" opacity="0.6"/>
      <circle cx="17" cy="18" r="0.65" fill="#fff" opacity="0.55"/>
    </pattern>
    <radialGradient id="vign" cx="50%" cy="50%" r="74%">
      <stop offset="50%" stop-color="transparent"/>
      <stop offset="100%" stop-color="#020510" stop-opacity="0.58"/>
    </radialGradient>
    <filter id="g">
      <feGaussianBlur in="SourceGraphic" stdDeviation="2.5" result="blur"/>
      <feMerge><feMergeNode in="blur"/><feMergeNode in="SourceGraphic"/></feMerge>
    </filter>
  </defs>
  <rect width="320" height="480" fill="url(#a)"/>
  <rect width="320" height="480" fill="url(#spark)" opacity="0.42"/>
  <ellipse cx="160" cy="198" rx="125" ry="158" fill="url(#bloom)"/>
  <g fill="none" stroke="#e3f2fd" opacity="0.45" stroke-width="0.85">
    <circle cx="160" cy="240" r="150"/>
    <circle cx="160" cy="240" r="120"/>
    <circle cx="160" cy="240" r="92"/>
    <circle cx="160" cy="240" r="64"/>
  </g>
  <g stroke="url(#bolt)" opacity="0.55" stroke-width="2.2" stroke-linecap="round" stroke-linejoin="round" fill="none" filter="url(#g)">
    <path d="M174 138 L154 268 L172 268 L142 352 L208 246 L172 246 L198 138"/>
    <path opacity="0.35" transform="translate(36 42) scale(0.75)" d="M174 138 L154 268 L172 268 L142 352 L208 246 L172 246 L198 138"/>
  </g>
  <g opacity="0.3" stroke="#fff" stroke-width="0.5" fill="none">
    <path d="M0 320 Q160 260 320 280"/>
    <path d="M0 352 Q160 296 320 312"/>
  </g>
  <rect width="320" height="480" fill="url(#vign)"/>
</svg>
